Coordinates
version=1
nRows=29
nColumns=22
inDegrees=yes

Units are S.I. units (second, meters, Newtons, ...)
If the header above contains a line with 'inDegrees', this indicates whether rotational values are in degrees (yes) or radians (no).

endheader
time	pelvis_tilt	pelvis_list	pelvis_rotation	pelvis_tx	pelvis_ty	pelvis_tz	hip_flexion_r	hip_adduction_r	hip_rotation_r	knee_angle_r	ankle_angle_r	subtalar_angle_r	hip_flexion_l	hip_adduction_l	hip_rotation_l	knee_angle_l	ankle_angle_l	subtalar_angle_l	lumbar_extension	lumbar_bending	lumbar_rotation
      0.01000000	     -0.57632403	     -5.28032082	     -0.18150291	      0.17642283	      0.92412754	      1.23616241	     -3.04095853	      7.39863448	    -10.89106664	    -15.26784085	     17.97079192	     -0.91242423	     30.16810105	     -6.44930981	      0.84404032	    -61.59156525	      5.20448537	     -4.15523215	    -13.55011283	      1.58438485	      0.93609770
      0.02000000	     -0.60648087	     -5.15107140	     -0.26942403	      0.17931303	      0.92397529	      1.23592188	     -3.31009230	      7.24815156	    -10.78638018	    -15.08577303	     18.03525507	     -0.91451529	     30.65038765	     -6.38275429	      0.44482123	    -60.93583510	      5.25088094	     -3.93625301	    -13.48988061	      1.40370996	      1.20868317
      0.03000000	     -0.63991336	     -5.00325885	     -0.33311450	      0.18278515	      0.92376524	      1.23553554	     -3.64805784	      7.07743636	    -10.69249584	    -14.84239292	     18.11202797	     -0.94650298	     31.17901879	     -6.28406649	      0.03414561	    -60.03799706	      5.27017917	     -3.60667860	    -13.41038194	      1.20572269	      1.49006725
      0.04000000	     -0.69072366	     -4.84614747	     -0.37301509	      0.18670177	      0.92347478	      1.23504183	     -4.02564384	      6.89903097	    -10.61792862	    -14.54322417	     18.18789229	     -0.97417535	     31.73372330	     -6.16321647	     -0.36708500	    -58.88541922	      5.27866772	     -3.31039072	    -13.30260485	      0.99265750	      1.75773266
      0.05000000	     -0.75014208	     -4.69112338	     -0.37967086	      0.19097318	      0.92309820	      1.23439984	     -4.43947690	      6.72008745	    -10.57753429	    -14.20453312	     18.27747757	     -0.98574458	     32.27682194	     -6.02402834	     -0.73469801	    -57.48535734	      5.26746071	     -3.06326774	    -13.17311975	      0.79062600	      2.00794809
      0.06000000	     -0.82321201	     -4.54756161	     -0.35417658	      0.19550250	      0.92262823	      1.23364080	     -4.87414187	      6.55326902	    -10.58146010	    -13.82979559	     18.38329160	     -0.96602470	     32.78755591	     -5.87472098	     -1.04949742	    -55.84264171	      5.24065288	     -2.89340326	    -13.02170593	      0.60404789	      2.23485991
      0.07000000	     -0.88960780	     -4.41887258	     -0.29405534	      0.20024771	      0.92208430	      1.23276988	     -5.35247352	      6.40365320	    -10.61588050	    -13.41389475	     18.52617236	     -0.88476528	     33.22636537	     -5.71790105	     -1.29879169	    -53.97487372	      5.20246258	     -2.77643152	    -12.87159111	      0.43740981	      2.42323600
      0.08000000	     -0.98934569	     -4.30240360	     -0.22650092	      0.20513671	      0.92139761	      1.23180778	     -5.79153162	      6.25734901	    -10.69500064	    -13.02339207	     18.67089314	     -0.77585399	     33.62925215	     -5.56398079	     -1.50515874	    -51.90823023	      5.14592142	     -2.77987263	    -12.67932494	      0.28644801	      2.61984375
      0.09000000	     -1.08263554	     -4.20538244	     -0.13661023	      0.21018966	      0.92061511	      1.23075661	     -6.25743698	      6.13166731	    -10.78177070	    -12.61840875	     18.84858479	     -0.61085470	     33.95070164	     -5.42071197	     -1.66512860	    -49.67067421	      5.08207278	     -2.85156240	    -12.48719659	      0.15831914	      2.79067992
      0.10000000	     -1.18239565	     -4.13775730	     -0.04425814	      0.21536334	      0.91970364	      1.22964370	     -6.71742974	      6.03326075	    -10.86737606	    -12.22931233	     19.03910305	     -0.41588182	     34.21601065	     -5.31260348	     -1.80558289	    -47.30311949	      5.00895676	     -2.99005372	    -12.28558393	      0.06198614	      2.96129010
      0.11000000	     -1.28622974	     -4.09325145	      0.04238784	      0.22065104	      0.91866092	      1.22850378	     -7.16603726	      5.95516089	    -10.93567146	    -11.87135286	     19.24215802	     -0.20126799	     34.42783722	     -5.24524736	     -1.95503631	    -44.83542742	      4.93207922	     -3.19193053	    -12.07838177	     -0.01665880	      3.14392800
      0.12000000	     -1.41738103	     -4.07728769	      0.10849928	      0.22605730	      0.91745182	      1.22732869	     -7.57126535	      5.89796641	    -10.97837370	    -11.55692342	     19.44758533	     -0.01320578	     34.61978276	     -5.23010420	     -2.14228587	    -42.30240971	      4.85400181	     -3.40600179	    -11.83586299	     -0.06764698	      3.34629718
      0.13000000	     -1.55583484	     -4.08489971	      0.15231987	      0.23157752	      0.91610589	      1.22614120	     -7.94698963	      5.85509482	    -10.98855233	    -11.30219288	     19.66641857	      0.17003170	     34.77800386	     -5.27071188	     -2.39770913	    -39.73401494	      4.78899867	     -3.62997904	    -11.58373220	     -0.09850058	      3.56688468
      0.14000000	     -1.71004751	     -4.11696050	      0.16591088	      0.23722166	      0.91461601	      1.22495333	     -8.28576809	      5.82624352	    -10.96640728	    -11.10336097	     19.89397801	      0.34289094	     34.91831803	     -5.36951162	     -2.73859635	    -37.16059496	      4.74553814	     -3.83458089	    -11.31088603	     -0.11420070	      3.81650372
      0.15000000	     -1.85323722	     -4.17475131	      0.15235515	      0.24298028	      0.91302811	      1.22374475	     -8.61468848	      5.81027275	    -10.90584654	    -10.96387833	     20.13420175	      0.54282590	     35.01822540	     -5.52363822	     -3.17125350	    -34.60847845	      4.74409672	     -4.04578004	    -11.05375489	     -0.10758346	      4.08464469
      0.16000000	     -2.04486333	     -4.24506346	      0.09850201	      0.24888935	      0.91124497	      1.22254102	     -8.87549053	      5.79234919	    -10.82243350	    -10.87509569	     20.37275865	      0.68507598	     35.15762576	     -5.73688233	     -3.76641121	    -32.13076212	      4.76923196	     -4.13939338	    -10.72996971	     -0.09904029	      4.38478697
      0.17000000	     -2.22933281	     -4.33148153	      0.01631247	      0.25491600	      0.90936332	      1.22131333	     -9.12259844	      5.77621533	    -10.69072690	    -10.84706352	     20.61830812	      0.83416347	     35.27758342	     -5.99679604	     -4.49749201	    -29.74204241	      4.85507267	     -4.19367106	    -10.41711828	     -0.07821406	      4.67533324
      0.18000000	     -2.39100507	     -4.42550032	     -0.09599964	      0.26111219	      0.90740767	      1.22008119	     -9.39794947	      5.75409165	    -10.55526716	    -10.83584106	     20.89180481	      1.01848960	     35.37374352	     -6.30407086	     -5.41300445	    -27.49465946	      4.98114046	     -4.22567860	    -10.12575435	     -0.06530832	      5.02353638
      0.19000000	     -2.56841924	     -4.52628976	     -0.23416838	      0.26744344	      0.90532199	      1.21883763	     -9.63344024	      5.72483909	    -10.37020358	    -10.89174787	     21.14419040	      1.18289464	     35.49268503	     -6.64481250	     -6.49607065	    -25.41358767	      5.17953362	     -4.21146653	     -9.81116665	     -0.05668747	      5.32698041
      0.20000000	     -2.71244818	     -4.62374714	     -0.39326585	      0.27397805	      0.90319226	      1.21756919	     -9.92158525	      5.67864274	    -10.17725125	    -10.94528636	     21.41960751	      1.38309859	     35.59368644	     -7.01439552	     -7.79211476	    -23.55737855	      5.40082912	     -4.18440233	     -9.52646512	     -0.06553567	      5.66290686
      0.21000000	     -2.84997999	     -4.72440625	     -0.55709163	      0.28068065	      0.90097744	      1.21623874	    -10.21114827	      5.62254634	     -9.96723317	    -11.03564037	     21.67679239	      1.57666074	     35.71734242	     -7.39851813	     -9.24963690	    -21.96284830	      5.66659277	     -4.14757152	     -9.24455777	     -0.07781798	      5.95723772
      0.22000000	     -2.96813180	     -4.81860171	     -0.72093197	      0.28759018	      0.89870918	      1.21483831	    -10.53335599	      5.54797228	     -9.75108826	    -11.13385392	     21.92594491	      1.77347293	     35.85840672	     -7.78815424	    -10.86939033	    -20.68035556	      5.94897189	     -4.11350027	     -8.97446530	     -0.10765177	      6.22200184
      0.23000000	     -3.02904974	     -4.88622242	     -0.86598368	      0.29472749	      0.89647847	      1.21332768	    -10.95030345	      5.43818661	     -9.51356857	    -11.20053642	     22.17459413	      2.03558830	     35.96310333	     -8.14901144	    -12.60075512	    -19.71077546	      6.18439977	     -4.10393308	     -8.76325619	     -0.17435671	      6.42538359
      0.24000000	     -3.10771376	     -4.98522420	     -1.00052806	      0.30204840	      0.89414334	      1.21172316	    -11.33458617	      5.34802247	     -9.31302369	    -11.32014846	     22.38348374	      2.22501845	     36.16038108	     -8.54888145	    -14.37395394	    -19.15331490	      6.44664479	     -4.10087744	     -8.52378790	     -0.20919227	      6.62009811
      0.25000000	     -3.14544438	     -5.06661055	     -1.10817118	      0.30963353	      0.89186327	      1.20998633	    -11.79708790	      5.23507050	     -9.08450079	    -11.40859135	     22.56096608	      2.44810607	     36.33909140	     -8.92689058	    -16.13773451	    -18.94842805	      6.63131280	     -4.14599880	     -8.31720939	     -0.26747470	      6.75798848
      0.26000000	     -3.15805145	     -5.15149393	     -1.17781579	      0.31748490	      0.88962940	      1.20811700	    -12.30885533	      5.12319550	     -8.87209886	    -11.48541376	     22.66935924	      2.68135231	     36.52648511	     -9.30154919	    -17.80574701	    -19.11226458	      6.74667406	     -4.25671797	     -8.12266021	     -0.32650255	      6.84714718
      0.27000000	     -3.14774572	     -5.21820329	     -1.22151516	      0.32563609	      0.88749857	      1.20610011	    -12.87572246	      4.98835765	     -8.61405050	    -11.53697693	     22.70228511	      2.98637152	     36.69150987	     -9.65033273	    -19.33850370	    -19.58681908	      6.76288367	     -4.52040241	     -7.93103246	     -0.40599959	      6.88773962
      0.28000000	     -3.12296654	     -5.30112920	     -1.21301642	      0.33405952	      0.88547376	      1.20390586	    -13.45717309	      4.86581358	     -8.44507526	    -11.61605812	     22.61193680	      3.35841342	     36.87003630	     -9.99408734	    -20.64958752	    -20.37625759	      6.66283001	     -5.04322657	     -7.73503614	     -0.46617740	      6.90608196
      0.29000000	     -3.12993401	     -5.39152087	     -1.17931513	      0.34274922	      0.88354424	      1.20160918	    -14.00626236	      4.75474906	     -8.22860474	    -11.71405881	     22.41953388	      3.67957799	     37.09572525	    -10.33871358	    -21.73494627	    -21.42337010	      6.42266877	     -5.65722457	     -7.47582397	     -0.52338257	      6.89533766
